<svg width="16" height="16" viewBox="0 0 16 16" fill="none" xmlns="http://www.w3.org/2000/svg">
<rect width="16" height="16" fill="#E73C3E"/>
<path d="M6.63887 11.7321V12.9751V11.7321ZM8.03723 10.6445V14.8437V10.6445ZM9.43768 11.7342V12.9772V11.7342Z" fill="white"/>
<path d="M9.43768 11.7342V12.9772M6.63887 11.7321V12.9751V11.7321ZM8.03723 10.6445V14.8437V10.6445Z" stroke="white" stroke-width="0.5625" stroke-linecap="round" stroke-linejoin="round"/>
<path d="M8.44457 5.05541C8.4128 5.019 8.3743 4.98906 8.33119 4.96722C8.29078 4.94692 8.24625 4.93615 8.20102 4.93573H7.58792V5.77558H8.21781C8.26329 5.77515 8.30798 5.76362 8.34799 5.74199C8.38851 5.71899 8.42417 5.68832 8.45298 5.6517C8.48401 5.61147 8.50748 5.56594 8.52226 5.51733C8.53945 5.46446 8.54796 5.40915 8.54745 5.35355C8.54884 5.29617 8.53886 5.23909 8.51806 5.18559C8.50112 5.13835 8.47627 5.09432 8.44457 5.05541Z" fill="white"/>
<path d="M12.0643 9.57803L9.14164 1.89337C9.04878 1.65664 8.88078 1.45694 8.66343 1.32494C8.44609 1.19294 8.19142 1.13594 7.93855 1.1627C7.71053 1.16424 7.4883 1.23463 7.30097 1.36463C7.11364 1.49464 6.96995 1.6782 6.88873 1.89127L3.94924 9.57592C3.88414 9.74667 3.86137 9.93065 3.88285 10.1121C3.90433 10.2936 3.96943 10.4672 4.0726 10.618C4.17577 10.7688 4.31393 10.8924 4.47527 10.9782C4.6366 11.0641 4.81632 11.1095 4.99906 11.1108C5.64365 11.1947 7.42203 9.48774 7.99523 9.32397C8.56004 9.48564 10.3678 11.1989 11.0019 11.1108C11.1856 11.1119 11.3669 11.0683 11.5299 10.9836C11.6929 10.8989 11.8328 10.7757 11.9375 10.6247C12.0422 10.4737 12.1084 10.2994 12.1305 10.1171C12.1526 9.93467 12.1299 9.74965 12.0643 9.57803ZM8.61883 7.09416L8.08552 6.22281H7.5879V7.09416H7.0819V4.49271H8.23249C8.34855 4.48956 8.46369 4.51403 8.56844 4.5641C8.66806 4.61198 8.75724 4.67905 8.83089 4.76147C8.90441 4.84359 8.96271 4.93815 9.00306 5.04072C9.04427 5.13989 9.06566 5.24617 9.06605 5.35356C9.06773 5.51558 9.0241 5.67485 8.94007 5.81338C8.8601 5.94701 8.73943 6.0515 8.59573 6.11153L9.18993 7.08996L8.61883 7.09416Z" fill="white"/>
</svg>
