<svg width="294" height="49" viewBox="0 0 294 49" fill="none" xmlns="http://www.w3.org/2000/svg">
<path d="M38.1797 32.854V15.1165H46.0213C46.8049 15.1077 47.5794 15.2843 48.2817 15.6319C48.9602 15.9603 49.568 16.418 50.0709 16.9794C50.5711 17.5379 50.9675 18.1812 51.2417 18.879C51.5216 19.5562 51.6666 20.2815 51.6687 21.0143C51.6817 22.12 51.3831 23.207 50.8073 24.1509C50.2682 25.0618 49.4496 25.7745 48.4732 26.1831L52.5155 32.854H48.6425L45.0199 26.9121H41.6256V32.854H38.1797ZM41.6256 23.8859H45.9477C46.2561 23.8881 46.5601 23.8121 46.8312 23.665C47.1191 23.5154 47.3705 23.3042 47.5675 23.0465C47.776 22.7731 47.9377 22.4671 48.0461 22.1408C48.1595 21.7761 48.2166 21.3962 48.2155 21.0143C48.2204 20.6225 48.153 20.2331 48.0167 19.8657C47.8955 19.5307 47.7133 19.2211 47.4792 18.9526C47.2666 18.7014 47.003 18.4981 46.706 18.3562C46.4324 18.2165 46.1297 18.1433 45.8225 18.1427H41.6477L41.6256 23.8859Z" fill="#00567E"/>
<path d="M64.8562 32.98C63.6377 33.0035 62.4296 32.7519 61.3219 32.2437C60.2907 31.7524 59.3653 31.0646 58.5976 30.2188C57.8411 29.3712 57.2448 28.3933 56.8378 27.3325C56.4272 26.2734 56.215 25.1477 56.212 24.0118C56.2082 22.8455 56.4334 21.6897 56.8746 20.6101C57.3036 19.5498 57.9224 18.5767 58.7007 17.7385C59.4815 16.9009 60.4198 16.2254 61.4618 15.7505C62.5534 15.2566 63.7391 15.0054 64.9371 15.0142C66.1509 14.9999 67.3511 15.2697 68.4419 15.802C69.4724 16.3037 70.3933 17.0044 71.1515 17.8637C71.9045 18.7181 72.498 19.7007 72.9039 20.7647C73.3132 21.8165 73.5253 22.9347 73.5298 24.0633C73.5312 25.2209 73.3113 26.368 72.8818 27.443C72.4604 28.4954 71.8489 29.4613 71.0779 30.2925C70.3013 31.1246 69.368 31.7952 68.3315 32.2657C67.2393 32.7554 66.0529 32.9992 64.8562 32.98ZM59.702 23.9897C59.7024 24.7401 59.8216 25.4856 60.0555 26.1986C60.275 26.8872 60.6167 27.5307 61.0642 28.0983C61.509 28.646 62.0633 29.0949 62.6914 29.4163C63.3745 29.7646 64.1338 29.9367 64.9003 29.9169C65.6672 29.9322 66.4261 29.7577 67.1092 29.4089C67.741 29.0737 68.2953 28.6097 68.7365 28.0467C69.1807 27.4739 69.5175 26.8253 69.7305 26.1324C69.9557 25.4354 70.07 24.7074 70.0692 23.975C70.0706 23.2239 69.9487 22.4777 69.7084 21.7661C69.4807 21.078 69.1344 20.435 68.6849 19.8664C68.2372 19.3232 67.677 18.8836 67.043 18.5779C66.3591 18.2505 65.6106 18.0806 64.8525 18.0806C64.0943 18.0806 63.3458 18.2505 62.662 18.5779C62.0314 18.9084 61.4771 19.3674 61.0347 19.9253C60.5998 20.4976 60.2661 21.1401 60.0481 21.825C59.8258 22.5252 59.7116 23.2551 59.7094 23.9897H59.702Z" fill="#00567E"/>
<path d="M77.5723 23.8636C77.5721 22.7666 77.7717 21.6788 78.1613 20.6533C78.5477 19.5902 79.1401 18.6137 79.9045 17.7798C80.6689 16.9459 81.5903 16.271 82.6159 15.7937C83.7701 15.2647 85.028 15.0005 86.2974 15.0206C87.7834 14.9797 89.2515 15.3518 90.5385 16.0956C91.6752 16.7532 92.5982 17.7246 93.1966 18.8936L90.5459 20.7122C90.3384 20.2469 90.0519 19.8209 89.6991 19.4532C89.386 19.1279 89.0232 18.8545 88.6242 18.6432C88.2461 18.442 87.8423 18.2934 87.424 18.2015C87.0223 18.1148 86.6126 18.0703 86.2017 18.0689C85.416 18.0473 84.6377 18.2272 83.9413 18.5917C83.3158 18.9239 82.7705 19.3888 82.3435 19.9538C81.91 20.5237 81.5832 21.1673 81.379 21.8535C81.1678 22.5356 81.0586 23.2453 81.055 23.9593C81.052 24.7286 81.179 25.4928 81.4305 26.2198C81.6646 26.917 82.0239 27.5658 82.4908 28.1342C82.9447 28.6834 83.5059 29.1344 84.1401 29.4595C84.7936 29.7948 85.5188 29.9666 86.2533 29.9602C86.6727 29.9574 87.0903 29.9055 87.4976 29.8056C88.385 29.6066 89.1943 29.1508 89.8243 28.4949C90.1673 28.1382 90.4374 27.7181 90.6195 27.258L93.4469 28.8852C93.1618 29.5461 92.749 30.1441 92.232 30.6449C91.7044 31.1562 91.107 31.59 90.4575 31.9335C89.1258 32.6244 87.6504 32.9927 86.1502 33.0085C84.9445 33.0199 83.7534 32.7448 82.6748 32.2059C81.6481 31.6887 80.7287 30.9817 79.9652 30.1222C79.2044 29.253 78.6036 28.2558 78.1908 27.177C77.7826 26.12 77.5729 24.9967 77.5723 23.8636Z" fill="#00567E"/>
<path d="M98.3135 32.8547V15.1835H101.759V23.5994L109.233 15.1172H113.032L106.207 22.9956L113.422 32.862H109.549L104.035 25.2045L101.759 27.5754V32.8694L98.3135 32.8547Z" fill="#00567E"/>
<path d="M129.849 29.8358V32.8547H117.523V15.1172H129.613V18.1434H120.969V22.4139H128.443V25.2045H120.969V29.8285L129.849 29.8358Z" fill="#00567E"/>
<path d="M148.301 18.1434H142.632V32.8694H139.208V18.1434H133.531V15.1172H148.257L148.301 18.1434Z" fill="#00567E"/>
<path d="M165.066 15.1172H168.137L174.881 32.8547H171.332L169.683 28.4369H163.491L161.863 32.8547H158.314L165.066 15.1172ZM169.035 26.0144L166.591 19.0417L164.043 26.0144H169.035Z" fill="#00567E"/>
<path d="M177.584 23.8637C177.585 22.7675 177.782 21.6803 178.166 20.6535C178.953 18.5078 180.557 16.7608 182.628 15.7939C183.782 15.2641 185.04 14.9999 186.309 15.0208C187.793 14.9788 189.259 15.3511 190.543 16.0958C191.682 16.7532 192.607 17.7245 193.208 18.8937L190.558 20.7124C190.348 20.2482 190.062 19.8226 189.711 19.4533C189.396 19.13 189.034 18.8569 188.636 18.6434C188.257 18.4433 187.854 18.2948 187.436 18.2016C187.034 18.1149 186.624 18.0705 186.213 18.0691C185.428 18.0474 184.649 18.2274 183.953 18.5918C183.325 18.9239 182.778 19.3888 182.348 19.954C181.919 20.5259 181.595 21.169 181.391 21.8536C181.176 22.5349 181.067 23.2451 181.067 23.9595C181.064 24.7287 181.191 25.4929 181.442 26.2199C181.673 26.9187 182.033 27.568 182.502 28.1343C182.956 28.6836 183.518 29.1345 184.152 29.4596C184.803 29.7949 185.525 29.9667 186.258 29.9603C186.679 29.9579 187.1 29.906 187.509 29.8057C187.942 29.7082 188.358 29.5495 188.746 29.3345C189.148 29.1078 189.514 28.8252 189.836 28.4951C190.179 28.1384 190.449 27.7182 190.631 27.2581L193.459 28.8853C193.174 29.5462 192.761 30.1442 192.244 30.6451C191.715 31.1546 191.118 31.5883 190.469 31.9336C189.137 32.6233 187.662 32.9914 186.162 33.0086C184.956 33.0201 183.765 32.745 182.687 32.206C181.66 31.6888 180.74 30.9818 179.977 30.1223C179.216 29.2531 178.615 28.2559 178.202 27.1771C177.791 26.121 177.581 24.9971 177.584 23.8637Z" fill="#00567E"/>
<path d="M203.089 15.1172H206.138L212.882 32.8547H209.37L207.721 28.4369H201.492L199.864 32.8547H196.315L203.089 15.1172ZM207.058 26.0144L204.614 19.0417L202.066 26.0144H207.058Z" fill="#00567E"/>
<path d="M217.329 32.8547V15.1172H223.772C225.077 15.0908 226.375 15.3287 227.586 15.8167C228.62 16.2338 229.552 16.8714 230.315 17.6853C231.078 18.4992 231.654 19.4696 232.004 20.529C232.759 22.8355 232.739 25.326 231.945 27.6196C231.565 28.6672 230.965 29.6212 230.185 30.4176C229.4 31.2037 228.459 31.818 227.424 32.2215C226.269 32.6565 225.043 32.8713 223.809 32.8547H217.329ZM229.044 23.9602C229.05 23.1641 228.933 22.3719 228.698 21.6114C228.484 20.9329 228.136 20.3044 227.674 19.7633C227.214 19.2495 226.646 18.8446 226.01 18.5778C225.309 18.2919 224.558 18.1492 223.801 18.1581H220.804V29.8506H223.801C224.578 29.8635 225.349 29.7104 226.062 29.4015C226.697 29.1181 227.261 28.6953 227.711 28.1645C228.165 27.6136 228.51 26.9814 228.727 26.3016C228.954 25.5423 229.06 24.7524 229.044 23.9602Z" fill="#00567E"/>
<path d="M250.029 29.8358V32.8547H237.718V15.1172H249.808V18.1434H241.164V22.4139H248.63V25.2045H241.164V29.8285L250.029 29.8358Z" fill="#00567E"/>
<path d="M269.695 32.8542V21.1176L265.122 29.8575H263.245L258.702 21.1176V32.8542H255.256V15.1167H258.937L264.172 25.2041L269.466 15.1094H273.148V32.8469L269.695 32.8542Z" fill="#00567E"/>
<path d="M281.336 15.1172L285.709 23.6656L290.127 15.1172H293.853L287.418 26.6771V32.8694H283.994V26.6256L277.573 15.1319L281.336 15.1172Z" fill="#00567E"/>
<path d="M9.69238 37.0875V41.4464V37.0875ZM14.5962 33.2734V47.9995V33.2734ZM19.5073 37.0948V41.4537V37.0948Z" fill="#00567E"/>
<path d="M19.5073 37.0948V41.4537M9.69238 37.0875V41.4464V37.0875ZM14.5962 33.2734V47.9995V33.2734Z" stroke="#00567E" stroke-width="2" stroke-linecap="round" stroke-linejoin="round"/>
<path d="M16.0246 13.6736C15.9132 13.5459 15.7782 13.4409 15.627 13.3643C15.4853 13.2931 15.3291 13.2554 15.1705 13.2539H13.0205V16.1991H15.2294C15.3889 16.1976 15.5456 16.1572 15.6859 16.0813C15.828 16.0007 15.9531 15.8931 16.0541 15.7647C16.1629 15.6236 16.2452 15.4639 16.2971 15.2935C16.3574 15.108 16.3872 14.9141 16.3854 14.7191C16.3903 14.5179 16.3553 14.3177 16.2823 14.1301C16.2229 13.9644 16.1358 13.8101 16.0246 13.6736Z" fill="#00567E"/>
<path d="M28.7184 29.5336L18.4691 2.58493C18.1435 1.75477 17.5543 1.05446 16.7921 0.591562C16.0299 0.128664 15.1369 -0.0712212 14.2501 0.0226072C13.4505 0.0280198 12.6711 0.27485 12.0142 0.730759C11.3573 1.18667 10.8534 1.83038 10.5686 2.57757L0.260357 29.5262C0.0320686 30.125 -0.0478144 30.7702 0.0275216 31.4065C0.102858 32.0429 0.331163 32.6516 0.692952 33.1805C1.05474 33.7095 1.53924 34.1429 2.10502 34.4439C2.6708 34.7448 3.30105 34.9042 3.94186 34.9086C6.20231 35.2031 12.4388 29.217 14.4489 28.6426C16.4295 29.2096 22.7691 35.2178 24.9927 34.9086C25.637 34.9127 26.2725 34.7596 26.8443 34.4625C27.416 34.1655 27.9066 33.7335 28.2736 33.204C28.6407 32.6745 28.873 32.0635 28.9505 31.4239C29.028 30.7843 28.9483 30.1354 28.7184 29.5336ZM16.6357 20.8231L14.7655 17.7675H13.0204V20.8231H11.246V11.7003H15.2809C15.6879 11.6893 16.0917 11.7751 16.459 11.9507C16.8083 12.1186 17.1211 12.3538 17.3794 12.6428C17.6372 12.9308 17.8416 13.2624 17.9831 13.6221C18.1276 13.9699 18.2027 14.3426 18.204 14.7192C18.2099 15.2873 18.0569 15.8459 17.7622 16.3317C17.4818 16.8003 17.0586 17.1667 16.5547 17.3772L18.6384 20.8084L16.6357 20.8231Z" fill="#00567E"/>
</svg>
